<?xml version="1.0" encoding="UTF-8" standalone="no"?>
<svg id="ExportContainer_SVG" width="900" height="600" viewBox="0 0 900 600" xmlns="http://www.w3.org/2000/svg" xmlns:xlink="http://www.w3.org/1999/xlink" version="2.0" style="font-size:10px;font-family:Calibri,Verdana,Arial,sans-serif"><defs><rect id="rect0" x="4" y="4" width="42.60309627412483" height="74.46638439090671"/><rect id="rect1" x="48.60309627412483" y="4" width="64.48955344701292" height="74.46638439090671"/><rect id="rect2" x="115.09264972113775" y="4" width="44.025135557402535" height="74.46638439090671"/><rect id="rect3" x="4" y="80.46638439090671" width="75.21210235469663" height="51.64600008017166"/><rect id="rect4" x="4" y="134.11238447107837" width="75.21210235469663" height="59.93392702211145"/><rect id="rect5" x="81.21210235469663" y="80.46638439090671" width="36.34615146391842" height="113.57992710228316"/><rect id="rect6" x="119.55825381861504" y="80.46638439090671" width="39.55953145992527" height="113.57992710228316"/><rect id="rect7" x="4" y="200.0463114931898" width="155.1177852785403" height="27.188188564372496"/><rect id="rect8" x="4" y="233.2345000575623" width="155.1177852785403" height="32.29438037926087"/><rect id="rect9" x="4" y="271.52888043682316" width="155.1177852785403" height="31.08844011010376"/><rect id="rect10" x="4" y="308.6173205469269" width="55.8463883098326" height="73.8321481380533"/><rect id="rect11" x="61.8463883098326" y="308.6173205469269" width="47.608451951824456" height="73.8321481380533"/><rect id="rect12" x="111.45484026165705" y="308.6173205469269" width="47.662945016883285" height="73.8321481380533"/><rect id="rect13" x="4" y="384.4494686849802" width="46.05583505911834" height="71.25431906000955"/><rect id="rect14" x="52.05583505911834" y="384.4494686849802" width="44.616252370301154" height="71.25431906000955"/><rect id="rect15" x="98.67208742941949" y="384.4494686849802" width="60.44569784912079" height="71.25431906000955"/><rect id="rect16" x="4" y="457.70378774498977" width="78.29379958407284" height="46.16670329015665"/><rect id="rect17" x="4" y="505.8704910351464" width="78.29379958407284" height="59.149776708572745"/><rect id="rect18" x="4" y="567.0202677437192" width="78.29379958407284" height="28.97973225628084"/><rect id="rect19" x="84.29379958407284" y="457.70378774498977" width="13.29909409701854" height="66.44448426310771"/><rect id="rect20" x="99.59289368109138" y="457.70378774498977" width="59.524891597448956" height="66.44448426310771"/><rect id="rect21" x="84.29379958407284" y="526.1482720080975" width="59.46275778904297" height="69.85172799190252"/><rect id="rect22" x="145.7565573731158" y="526.1482720080975" width="13.3612279054245" height="69.85172799190195"/><rect id="rect23" x="165.1177852785403" y="4" width="148.7571244061655" height="33.31378123171132"/><rect id="rect24" x="165.1177852785403" y="43.31378123171132" width="41.14309053282926" height="68.70949415771008"/><rect id="rect25" x="208.26087581136957" y="43.31378123171132" width="49.686779483222466" height="68.70949415771008"/><rect id="rect26" x="259.94765529459204" y="43.31378123171132" width="53.927254390113774" height="68.70949415771008"/><rect id="rect27" x="165.1177852785403" y="114.0232753894214" width="84.79505004601506" height="35.06948140893084"/><rect id="rect28" x="165.1177852785403" y="151.09275679835224" width="84.79505004601506" height="32.18384542074807"/><rect id="rect29" x="165.1177852785403" y="185.2766022191003" width="84.79505004601506" height="45.557079970788834"/><rect id="rect30" x="251.91283532455537" y="114.0232753894214" width="61.96207436015044" height="66.63040828515682"/><rect id="rect31" x="251.91283532455537" y="182.65368367457822" width="61.96207436015038" height="48.1799985153109"/><rect id="rect32" x="165.1177852785403" y="236.83368218988912" width="148.7571244061655" height="26.64563664268897"/><rect id="rect33" x="165.1177852785403" y="269.4793188325781" width="148.7571244061655" height="26.629961846101594"/><rect id="rect34" x="165.1177852785403" y="302.1092806786797" width="47.46472773280536" height="95.47791170353696"/><rect id="rect35" x="214.58251301134567" y="302.1092806786797" width="48.611228259297434" height="95.47791170353696"/><rect id="rect36" x="265.1937412706431" y="302.1092806786797" width="48.68116841406271" height="95.47791170353696"/><rect id="rect37" x="165.1177852785403" y="399.58719238221664" width="23.580207874124255" height="83.77315963126665"/><rect id="rect38" x="190.69799315266457" y="399.58719238221664" width="59.545344484178685" height="83.77315963126665"/><rect id="rect39" x="252.24333763684325" y="399.58719238221664" width="61.63157204786256" height="83.77315963126665"/><rect id="rect40" x="165.1177852785403" y="485.3603520134833" width="86.69275293619546" height="54.089186255963"/><rect id="rect41" x="165.1177852785403" y="541.4495382694463" width="86.69275293619546" height="54.55046173055371"/><rect id="rect42" x="253.81053821473577" y="485.3603520134833" width="60.06437146997004" height="22.16663687600277"/><rect id="rect43" x="253.81053821473577" y="509.52698888948606" width="60.06437146997004" height="86.47301111051394"/><rect id="rect44" x="319.8749096847058" y="4" width="78.24057079117313" height="46.972768639405395"/><rect id="rect45" x="319.8749096847058" y="52.972768639405395" width="78.24057079117313" height="45.40716780462167"/><rect id="rect46" x="319.8749096847058" y="100.37993644402707" width="78.24057079117313" height="52.58575324353234"/><rect id="rect47" x="319.8749096847058" y="154.9656896875594" width="78.24057079117313" height="58.127639304170486"/><rect id="rect48" x="319.8749096847058" y="215.0933289917299" width="78.24057079117313" height="53.0188625267412"/><rect id="rect49" x="400.11548047587894" y="4" width="77.5906839487202" height="26.363253477414382"/><rect id="rect50" x="400.11548047587894" y="32.36325347741438" width="77.5906839487202" height="65.74914791883504"/><rect id="rect51" x="400.11548047587894" y="100.11240139624942" width="77.5906839487202" height="63.46887957070493"/><rect id="rect52" x="400.11548047587894" y="165.58128096695435" width="77.5906839487202" height="48.923744918008595"/><rect id="rect53" x="400.11548047587894" y="216.50502588496295" width="77.5906839487202" height="51.607165633508146"/><rect id="rect54" x="479.70616442459914" y="4" width="76.7673826194573" height="54.021907523391214"/><rect id="rect55" x="479.70616442459914" y="60.021907523391214" width="76.7673826194573" height="52.31970674427354"/><rect id="rect56" x="479.70616442459914" y="114.34161426766475" width="76.7673826194573" height="52.453164437060465"/><rect id="rect57" x="479.70616442459914" y="168.79477870472522" width="76.7673826194573" height="46.51950211064835"/><rect id="rect58" x="479.70616442459914" y="217.31428081537356" width="76.7673826194573" height="50.79791070309753"/><rect id="rect59" x="558.4735470440564" y="4" width="74.77762791933014" height="41.11179346040917"/><rect id="rect60" x="558.4735470440564" y="47.11179346040917" width="74.77762791933014" height="62.96011159476941"/><rect id="rect61" x="558.4735470440564" y="112.07190505517858" width="74.77762791933014" height="63.15680198574353"/><rect id="rect62" x="558.4735470440564" y="177.2287070409221" width="74.77762791933014" height="60.030815758291794"/><rect id="rect63" x="558.4735470440564" y="239.2595227992139" width="74.77762791933014" height="28.852668719257252"/><rect id="rect64" x="635.2511749633866" y="4" width="70.07892853279805" height="75.47240937144193"/><rect id="rect65" x="707.3301034961846" y="4" width="57.263484169572735" height="75.47240937144193"/><rect id="rect66" x="766.5935876657574" y="4" width="69.79738293037951" height="75.47240937144193"/><rect id="rect67" x="838.3909705961369" y="4" width="57.60902940386313" height="75.47240937144193"/><rect id="rect68" x="635.2511749633866" y="81.47240937144193" width="83.37485974332026" height="35.51356944579831"/><rect id="rect69" x="635.2511749633866" y="118.98597881724024" width="83.37485974332026" height="34.2230656206751"/><rect id="rect70" x="635.2511749633866" y="155.20904443791534" width="83.37485974332026" height="60.70604592222898"/><rect id="rect71" x="635.2511749633866" y="217.91509036014432" width="83.37485974332026" height="50.19710115832683"/><rect id="rect72" x="720.6260347067068" y="81.47240937144193" width="58.999990427792" height="74.99701680420853"/><rect id="rect73" x="781.6260251344988" y="81.47240937144193" width="51.131388898529735" height="74.99701680420853"/><rect id="rect74" x="834.7574140330286" y="81.47240937144193" width="61.24258596697143" height="74.99701680420853"/><rect id="rect75" x="720.6260347067068" y="158.46942617565045" width="71.15042607599673" height="55.876747822180135"/><rect id="rect76" x="720.6260347067068" y="216.3461739978306" width="71.15042607599673" height="51.76601752064056"/><rect id="rect77" x="793.7764607827036" y="158.46942617565045" width="55.209940051783065" height="59.10263040094287"/><rect id="rect78" x="850.9864008344866" y="158.46942617565045" width="45.01359916551337" height="59.10263040094287"/><rect id="rect79" x="793.7764607827036" y="219.57205657659333" width="54.30394180472376" height="48.540134941877824"/><rect id="rect80" x="850.0804025874273" y="219.57205657659333" width="45.91959741257267" height="48.54013494187777"/><rect id="rect81" x="319.8749096847058" y="274.11219151847115" width="137.1427592768718" height="27.592154740615797"/><rect id="rect82" x="319.8749096847058" y="307.70434625908695" width="65.57755981290825" height="76.13852355952343"/><rect id="rect83" x="387.45246949761406" y="307.70434625908695" width="69.56519946396355" height="76.13852355952343"/><rect id="rect84" x="319.8749096847058" y="385.8428698186104" width="66.62836930970315" height="77.9579885872073"/><rect id="rect85" x="388.50327899440896" y="385.8428698186104" width="68.51438996716865" height="77.9579885872073"/><rect id="rect86" x="319.8749096847058" y="465.8008584058177" width="67.33901427046021" height="79.24680551876935"/><rect id="rect87" x="389.213923955166" y="465.8008584058177" width="67.80374500641159" height="79.24680551876935"/><rect id="rect88" x="319.8749096847058" y="551.047663924587" width="70.46526819922235" height="44.95233607541297"/><rect id="rect89" x="392.34017788392816" y="551.047663924587" width="64.67749107764945" height="44.95233607541297"/><rect id="rect90" x="463.0176689615776" y="274.11219151847115" width="46.970592996758455" height="75.91711521143344"/><rect id="rect91" x="511.98826195833607" y="274.11219151847115" width="64.23463059403531" height="75.91711521143344"/><rect id="rect92" x="463.0176689615776" y="352.0293067299046" width="46.820967836153784" height="64.51178342517647"/><rect id="rect93" x="511.8386367977314" y="352.0293067299046" width="64.38425575463998" height="64.51178342517647"/><rect id="rect94" x="463.0176689615776" y="418.54109015508106" width="62.51070050166328" height="39.35899966358244"/><rect id="rect95" x="463.0176689615776" y="459.9000898186635" width="62.51070050166328" height="42.51175410570164"/><rect id="rect96" x="527.5283694632409" y="418.54109015508106" width="48.694523089130485" height="83.87075376928414"/><rect id="rect97" x="463.0176689615776" y="508.41184392436514" width="113.20522359079376" height="40.62050580002574"/><rect id="rect98" x="463.0176689615776" y="555.0323497243909" width="113.20522359079376" height="40.96765027560923"/><rect id="rect99" x="582.2228925523714" y="274.11219151847115" width="76.88272472926178" height="48.097371499185385"/><rect id="rect100" x="582.2228925523714" y="324.20956301765654" width="76.88272472926178" height="66.78023586887502"/><rect id="rect101" x="582.2228925523714" y="392.98979888653156" width="76.88272472926178" height="40.60686249713996"/><rect id="rect102" x="582.2228925523714" y="435.5966613836715" width="76.88272472926178" height="51.008980864842044"/><rect id="rect103" x="582.2228925523714" y="488.60564224851356" width="76.88272472926178" height="51.87981586588802"/><rect id="rect104" x="661.1056172816332" y="274.11219151847115" width="49.63138628393722" height="90.07090069111416"/><rect id="rect105" x="712.7370035655704" y="274.11219151847115" width="37.431624686868304" height="90.07090069111416"/><rect id="rect106" x="752.1686282524387" y="274.11219151847115" width="42.38964843573035" height="90.07090069111416"/><rect id="rect107" x="796.558276688169" y="274.11219151847115" width="45.0768694092219" height="90.07090069111416"/><rect id="rect108" x="843.6351460973909" y="274.11219151847115" width="52.36485390260907" height="90.07090069111416"/><rect id="rect109" x="661.1056172816332" y="366.1830922095853" width="73.06154343353876" height="58.88881241458506"/><rect id="rect110" x="661.1056172816332" y="427.0719046241704" width="73.06154343353876" height="55.35489858126891"/><rect id="rect111" x="661.1056172816332" y="484.4268032054393" width="73.06154343353876" height="56.05865490896241"/><rect id="rect112" x="736.1671607151719" y="366.1830922095853" width="52.690819913986616" height="85.72942273495653"/><rect id="rect113" x="790.8579806291585" y="366.1830922095853" width="47.77339275092686" height="85.72942273495653"/><rect id="rect114" x="840.6313733800854" y="366.1830922095853" width="55.36862661991461" height="85.72942273495653"/><rect id="rect115" x="736.1671607151719" y="453.91251494454184" width="112.98811247916876" height="42.73790116422964"/><rect id="rect116" x="736.1671607151719" y="498.6504161087715" width="112.98811247916876" height="41.8350420056301"/><rect id="rect117" x="851.1552731943407" y="453.91251494454184" width="44.84472680565932" height="86.57294316985974"/><rect id="rect118" x="582.2228925523714" y="546.4854581144016" width="97.10519879006392" height="49.51454188559842"/><rect id="rect119" x="685.3280913424353" y="546.4854581144016" width="92.88254637457896" height="49.51454188559842"/><rect id="rect120" x="784.2106377170143" y="546.4854581144016" width="24.210388114897" height="49.51454188559842"/><rect id="rect121" x="810.4210258319113" y="546.4854581144016" width="59.28405096992424" height="49.51454188559842"/><rect id="rect122" x="871.7050768018355" y="546.4854581144016" width="24.294923198165407" height="49.51454188559842"/></defs><g><g id="ExportContainer_Group_GO0006107"><rect x="3" y="3" width="157.1177852785403" height="192.0463114931898" rx="2" style="stroke: gainsboro; fill: white;"/><g><rect x="4" y="4" width="42.60309627412483" height="74.46638439090671" rx="2" style="fill: crimson;"/><text fill="white" x="4" y="4" style="shape-inside: url(#rect0); text-align: center;">(GO0006107, representative) oxaloacetate metabolic process</text></g><g><rect x="48.60309627412483" y="4" width="64.48955344701292" height="74.46638439090671" rx="2" style="fill: crimson;"/><text fill="white" x="48.60309627412483" y="4" style="shape-inside: url(#rect1); text-align: center;">(GO0006082) organic acid metabolic process</text></g><g><rect x="115.09264972113775" y="4" width="44.025135557402535" height="74.46638439090671" rx="2" style="fill: crimson;"/><text fill="white" x="115.09264972113775" y="4" style="shape-inside: url(#rect2); text-align: center;">(GO0006528) asparagine metabolic process</text></g><g><rect x="4" y="80.46638439090671" width="75.21210235469663" height="51.64600008017166" rx="2" style="fill: crimson;"/><text fill="white" x="4" y="80.46638439090671" style="shape-inside: url(#rect3); text-align: center;">(GO0006541) glutamine metabolic process</text></g><g><rect x="4" y="134.11238447107837" width="75.21210235469663" height="59.93392702211145" rx="2" style="fill: crimson;"/><text fill="white" x="4" y="134.11238447107837" style="shape-inside: url(#rect4); text-align: center;">(GO0032787) monocarboxylic acid metabolic process</text></g><g><rect x="81.21210235469663" y="80.46638439090671" width="36.34615146391842" height="113.57992710228316" rx="2" style="fill: crimson;"/><text fill="white" x="81.21210235469663" y="80.46638439090671" style="shape-inside: url(#rect5); text-align: center;">(GO0043648) dicarboxylic acid metabolic process</text></g><g><rect x="119.55825381861504" y="80.46638439090671" width="39.55953145992527" height="113.57992710228316" rx="2" style="fill: crimson;"/><text fill="white" x="119.55825381861504" y="80.46638439090671" style="shape-inside: url(#rect6); text-align: center;">(GO1901605) alpha-amino acid metabolic process</text></g></g><g id="ExportContainer_Group_GO0007154"><rect x="3" y="199.0463114931898" width="157.1177852785403" height="29.188188564372496" rx="2" style="stroke: gainsboro; fill: white;"/><g><rect x="4" y="200.0463114931898" width="155.1177852785403" height="27.188188564372496" rx="2" style="fill: lightseagreen;"/><text fill="white" x="4" y="200.0463114931898" style="shape-inside: url(#rect7); text-align: center;">(GO0007154, representative) cell communication</text></g></g><g id="ExportContainer_Group_GO0008150"><rect x="3" y="232.2345000575623" width="157.1177852785403" height="34.29438037926087" rx="2" style="stroke: gainsboro; fill: white;"/><g><rect x="4" y="233.2345000575623" width="155.1177852785403" height="32.29438037926087" rx="2" style="fill: tomato;"/><text fill="white" x="4" y="233.2345000575623" style="shape-inside: url(#rect8); text-align: center;">(GO0008150, representative) biological_process</text></g></g><g id="ExportContainer_Group_GO0008152"><rect x="3" y="270.52888043682316" width="157.1177852785403" height="33.08844011010376" rx="2" style="stroke: gainsboro; fill: white;"/><g><rect x="4" y="271.52888043682316" width="155.1177852785403" height="31.08844011010376" rx="2" style="fill: royalblue;"/><text fill="white" x="4" y="271.52888043682316" style="shape-inside: url(#rect9); text-align: center;">(GO0008152, representative) metabolic process</text></g></g><g id="ExportContainer_Group_GO0009719"><rect x="3" y="307.6173205469269" width="157.1177852785403" height="289.3826794530731" rx="2" style="stroke: gainsboro; fill: white;"/><g><rect x="4" y="308.6173205469269" width="55.8463883098326" height="73.8321481380533" rx="2" style="fill: mediumseagreen;"/><text fill="white" x="4" y="308.6173205469269" style="shape-inside: url(#rect10); text-align: center;">(GO0009719, representative) response to endogenous stimulus</text></g><g><rect x="61.8463883098326" y="308.6173205469269" width="47.608451951824456" height="73.8321481380533" rx="2" style="fill: mediumseagreen;"/><text fill="white" x="61.8463883098326" y="308.6173205469269" style="shape-inside: url(#rect11); text-align: center;">(GO0001101) response to acid chemical</text></g><g><rect x="111.45484026165705" y="308.6173205469269" width="47.662945016883285" height="73.8321481380533" rx="2" style="fill: mediumseagreen;"/><text fill="white" x="111.45484026165705" y="308.6173205469269" style="shape-inside: url(#rect12); text-align: center;">(GO0009410) response to xenobiotic stimulus</text></g><g><rect x="4" y="384.4494686849802" width="46.05583505911834" height="71.25431906000955" rx="2" style="fill: mediumseagreen;"/><text fill="white" x="4" y="384.4494686849802" style="shape-inside: url(#rect13); text-align: center;">(GO0009743) response to carbohydrate</text></g><g><rect x="52.05583505911834" y="384.4494686849802" width="44.616252370301154" height="71.25431906000955" rx="2" style="fill: mediumseagreen;"/><text fill="white" x="52.05583505911834" y="384.4494686849802" style="shape-inside: url(#rect14); text-align: center;">(GO0009749) response to glucose</text></g><g><rect x="98.67208742941949" y="384.4494686849802" width="60.44569784912079" height="71.25431906000955" rx="2" style="fill: mediumseagreen;"/><text fill="white" x="98.67208742941949" y="384.4494686849802" style="shape-inside: url(#rect15); text-align: center;">(GO0010033) response to organic substance</text></g><g><rect x="4" y="457.70378774498977" width="78.29379958407284" height="46.16670329015665" rx="2" style="fill: mediumseagreen;"/><text fill="white" x="4" y="457.70378774498977" style="shape-inside: url(#rect16); text-align: center;">(GO0014070) response to organic cyclic compound</text></g><g><rect x="4" y="505.8704910351464" width="78.29379958407284" height="59.149776708572745" rx="2" style="fill: mediumseagreen;"/><text fill="white" x="4" y="505.8704910351464" style="shape-inside: url(#rect17); text-align: center;">(GO0042221) response to chemical</text></g><g><rect x="4" y="567.0202677437192" width="78.29379958407284" height="28.97973225628084" rx="2" style="fill: mediumseagreen;"/><text fill="white" x="4" y="567.0202677437192" style="shape-inside: url(#rect18); text-align: center;">(GO0097066) response to thyroid hormone</text></g><g><rect x="84.29379958407284" y="457.70378774498977" width="13.29909409701854" height="66.44448426310771" rx="2" style="fill: mediumseagreen;"/><text fill="white" x="84.29379958407284" y="457.70378774498977" style="shape-inside: url(#rect19); text-align: center;">(GO0097068) response to thyroxine</text></g><g><rect x="99.59289368109138" y="457.70378774498977" width="59.524891597448956" height="66.44448426310771" rx="2" style="fill: mediumseagreen;"/><text fill="white" x="99.59289368109138" y="457.70378774498977" style="shape-inside: url(#rect20); text-align: center;">(GO1901698) response to nitrogen compound</text></g><g><rect x="84.29379958407284" y="526.1482720080975" width="59.46275778904297" height="69.85172799190252" rx="2" style="fill: mediumseagreen;"/><text fill="white" x="84.29379958407284" y="526.1482720080975" style="shape-inside: url(#rect21); text-align: center;">(GO1901700) response to oxygen-containing compound</text></g><g><rect x="145.7565573731158" y="526.1482720080975" width="13.3612279054245" height="69.85172799190195" rx="2" style="fill: mediumseagreen;"/><text fill="white" x="145.7565573731158" y="526.1482720080975" style="shape-inside: url(#rect22); text-align: center;">(GO1904386) response to L-phenylalanine derivative</text></g></g><g id="ExportContainer_Group_GO0009987"><rect x="164.1177852785403" y="3" width="150.7571244061655" height="35.31378123171132" rx="2" style="stroke: gainsboro; fill: white;"/><g><rect x="165.1177852785403" y="4" width="148.7571244061655" height="33.31378123171132" rx="2" style="fill: darkorchid;"/><text fill="white" x="165.1177852785403" y="4" style="shape-inside: url(#rect23); text-align: center;">(GO0009987, representative) cellular process</text></g></g><g id="ExportContainer_Group_GO0031016"><rect x="164.1177852785403" y="42.31378123171132" width="150.7571244061655" height="189.5199009581778" rx="2" style="stroke: gainsboro; fill: white;"/><g><rect x="165.1177852785403" y="43.31378123171132" width="41.14309053282926" height="68.70949415771008" rx="2" style="fill: darkorange;"/><text fill="white" x="165.1177852785403" y="43.31378123171132" style="shape-inside: url(#rect24); text-align: center;">(GO0031016, representative) pancreas development</text></g><g><rect x="208.26087581136957" y="43.31378123171132" width="49.686779483222466" height="68.70949415771008" rx="2" style="fill: darkorange;"/><text fill="white" x="208.26087581136957" y="43.31378123171132" style="shape-inside: url(#rect25); text-align: center;">(GO0001501) skeletal system development</text></g><g><rect x="259.94765529459204" y="43.31378123171132" width="53.927254390113774" height="68.70949415771008" rx="2" style="fill: darkorange;"/><text fill="white" x="259.94765529459204" y="43.31378123171132" style="shape-inside: url(#rect26); text-align: center;">(GO0007417) central nervous system development</text></g><g><rect x="165.1177852785403" y="114.0232753894214" width="84.79505004601506" height="35.06948140893084" rx="2" style="fill: darkorange;"/><text fill="white" x="165.1177852785403" y="114.0232753894214" style="shape-inside: url(#rect27); text-align: center;">(GO0021953) central nervous system neuron differentiation</text></g><g><rect x="165.1177852785403" y="151.09275679835224" width="84.79505004601506" height="32.18384542074807" rx="2" style="fill: darkorange;"/><text fill="white" x="165.1177852785403" y="151.09275679835224" style="shape-inside: url(#rect28); text-align: center;">(GO0021954) central nervous system neuron development</text></g><g><rect x="165.1177852785403" y="185.2766022191003" width="84.79505004601506" height="45.557079970788834" rx="2" style="fill: darkorange;"/><text fill="white" x="165.1177852785403" y="185.2766022191003" style="shape-inside: url(#rect29); text-align: center;">(GO0032989) cellular anatomical entity morphogenesis</text></g><g><rect x="251.91283532455537" y="114.0232753894214" width="61.96207436015044" height="66.63040828515682" rx="2" style="fill: darkorange;"/><text fill="white" x="251.91283532455537" y="114.0232753894214" style="shape-inside: url(#rect30); text-align: center;">(GO0048513) animal organ development</text></g><g><rect x="251.91283532455537" y="182.65368367457822" width="61.96207436015038" height="48.1799985153109" rx="2" style="fill: darkorange;"/><text fill="white" x="251.91283532455537" y="182.65368367457822" style="shape-inside: url(#rect31); text-align: center;">(GO0060348) bone development</text></g></g><g id="ExportContainer_Group_GO0032501"><rect x="164.1177852785403" y="235.83368218988912" width="150.7571244061655" height="28.64563664268897" rx="2" style="stroke: gainsboro; fill: white;"/><g><rect x="165.1177852785403" y="236.83368218988912" width="148.7571244061655" height="26.64563664268897" rx="2" style="fill: slateblue;"/><text fill="white" x="165.1177852785403" y="236.83368218988912" style="shape-inside: url(#rect32); text-align: center;">(GO0032501, representative) multicellular organismal process</text></g></g><g id="ExportContainer_Group_GO0032502"><rect x="164.1177852785403" y="268.4793188325781" width="150.7571244061655" height="28.629961846101594" rx="2" style="stroke: gainsboro; fill: white;"/><g><rect x="165.1177852785403" y="269.4793188325781" width="148.7571244061655" height="26.629961846101594" rx="2" style="fill: lightsalmon;"/><text fill="black" x="165.1177852785403" y="269.4793188325781" style="shape-inside: url(#rect33); text-align: center;">(GO0032502, representative) developmental process</text></g></g><g id="ExportContainer_Group_GO0036211"><rect x="164.1177852785403" y="301.1092806786797" width="150.7571244061655" height="295.8907193213203" rx="2" style="stroke: gainsboro; fill: white;"/><g><rect x="165.1177852785403" y="302.1092806786797" width="47.46472773280536" height="95.47791170353696" rx="2" style="fill: paleturquoise;"/><text fill="black" x="165.1177852785403" y="302.1092806786797" style="shape-inside: url(#rect34); text-align: center;">(GO0036211, representative) protein modification process</text></g><g><rect x="214.58251301134567" y="302.1092806786797" width="48.611228259297434" height="95.47791170353696" rx="2" style="fill: paleturquoise;"/><text fill="black" x="214.58251301134567" y="302.1092806786797" style="shape-inside: url(#rect35); text-align: center;">(GO0006508) proteolysis</text></g><g><rect x="265.1937412706431" y="302.1092806786797" width="48.68116841406271" height="95.47791170353696" rx="2" style="fill: paleturquoise;"/><text fill="black" x="265.1937412706431" y="302.1092806786797" style="shape-inside: url(#rect36); text-align: center;">(GO0006520) amino acid metabolic process</text></g><g><rect x="165.1177852785403" y="399.58719238221664" width="23.580207874124255" height="83.77315963126665" rx="2" style="fill: paleturquoise;"/><text fill="black" x="165.1177852785403" y="399.58719238221664" style="shape-inside: url(#rect37); text-align: center;">(GO0016579) protein deubiquitination</text></g><g><rect x="190.69799315266457" y="399.58719238221664" width="59.545344484178685" height="83.77315963126665" rx="2" style="fill: paleturquoise;"/><text fill="black" x="190.69799315266457" y="399.58719238221664" style="shape-inside: url(#rect38); text-align: center;">(GO0019538) protein metabolic process</text></g><g><rect x="252.24333763684325" y="399.58719238221664" width="61.63157204786256" height="83.77315963126665" rx="2" style="fill: paleturquoise;"/><text fill="black" x="252.24333763684325" y="399.58719238221664" style="shape-inside: url(#rect39); text-align: center;">(GO0034641) cellular nitrogen compound metabolic process</text></g><g><rect x="165.1177852785403" y="485.3603520134833" width="86.69275293619546" height="54.089186255963" rx="2" style="fill: paleturquoise;"/><text fill="black" x="165.1177852785403" y="485.3603520134833" style="shape-inside: url(#rect40); text-align: center;">(GO0043412) macromolecule modification</text></g><g><rect x="165.1177852785403" y="541.4495382694463" width="86.69275293619546" height="54.55046173055371" rx="2" style="fill: paleturquoise;"/><text fill="black" x="165.1177852785403" y="541.4495382694463" style="shape-inside: url(#rect41); text-align: center;">(GO0043603) amide metabolic process</text></g><g><rect x="253.81053821473577" y="485.3603520134833" width="60.06437146997004" height="22.16663687600277" rx="2" style="fill: paleturquoise;"/><text fill="black" x="253.81053821473577" y="485.3603520134833" style="shape-inside: url(#rect42); text-align: center;">(GO0071108) protein K48-linked deubiquitination</text></g><g><rect x="253.81053821473577" y="509.52698888948606" width="60.06437146997004" height="86.47301111051394" rx="2" style="fill: paleturquoise;"/><text fill="black" x="253.81053821473577" y="509.52698888948606" style="shape-inside: url(#rect43); text-align: center;">(GO1901564) organonitrogen compound metabolic process</text></g></g><g id="ExportContainer_Group_GO0040008"><rect x="318.8749096847058" y="3" width="578.1250903152942" height="266.11219151847115" rx="2" style="stroke: gainsboro; fill: white;"/><g><rect x="319.8749096847058" y="4" width="78.24057079117313" height="46.972768639405395" rx="2" style="fill: gold;"/><text fill="black" x="319.8749096847058" y="4" style="shape-inside: url(#rect44); text-align: center;">(GO0040008, representative) regulation of growth</text></g><g><rect x="319.8749096847058" y="52.972768639405395" width="78.24057079117313" height="45.40716780462167" rx="2" style="fill: gold;"/><text fill="black" x="319.8749096847058" y="52.972768639405395" style="shape-inside: url(#rect45); text-align: center;">(GO0001558) regulation of cell growth</text></g><g><rect x="319.8749096847058" y="100.37993644402707" width="78.24057079117313" height="52.58575324353234" rx="2" style="fill: gold;"/><text fill="black" x="319.8749096847058" y="100.37993644402707" style="shape-inside: url(#rect46); text-align: center;">(GO0007267) cell-cell signaling</text></g><g><rect x="319.8749096847058" y="154.9656896875594" width="78.24057079117313" height="58.127639304170486" rx="2" style="fill: gold;"/><text fill="black" x="319.8749096847058" y="154.9656896875594" style="shape-inside: url(#rect47); text-align: center;">(GO0009892) negative regulation of metabolic process</text></g><g><rect x="319.8749096847058" y="215.0933289917299" width="78.24057079117313" height="53.0188625267412" rx="2" style="fill: gold;"/><text fill="black" x="319.8749096847058" y="215.0933289917299" style="shape-inside: url(#rect48); text-align: center;">(GO0009894) regulation of catabolic process</text></g><g><rect x="400.11548047587894" y="4" width="77.5906839487202" height="26.363253477414382" rx="2" style="fill: gold;"/><text fill="black" x="400.11548047587894" y="4" style="shape-inside: url(#rect49); text-align: center;">(GO0016202) regulation of striated muscle tissue development</text></g><g><rect x="400.11548047587894" y="32.36325347741438" width="77.5906839487202" height="65.74914791883504" rx="2" style="fill: gold;"/><text fill="black" x="400.11548047587894" y="32.36325347741438" style="shape-inside: url(#rect50); text-align: center;">(GO0019222) regulation of metabolic process</text></g><g><rect x="400.11548047587894" y="100.11240139624942" width="77.5906839487202" height="63.46887957070493" rx="2" style="fill: gold;"/><text fill="black" x="400.11548047587894" y="100.11240139624942" style="shape-inside: url(#rect51); text-align: center;">(GO0023052) signaling</text></g><g><rect x="400.11548047587894" y="165.58128096695435" width="77.5906839487202" height="48.923744918008595" rx="2" style="fill: gold;"/><text fill="black" x="400.11548047587894" y="165.58128096695435" style="shape-inside: url(#rect52); text-align: center;">(GO0030162) regulation of proteolysis</text></g><g><rect x="400.11548047587894" y="216.50502588496295" width="77.5906839487202" height="51.607165633508146" rx="2" style="fill: gold;"/><text fill="black" x="400.11548047587894" y="216.50502588496295" style="shape-inside: url(#rect53); text-align: center;">(GO0031329) regulation of cellular catabolic process</text></g><g><rect x="479.70616442459914" y="4" width="76.7673826194573" height="54.021907523391214" rx="2" style="fill: gold;"/><text fill="black" x="479.70616442459914" y="4" style="shape-inside: url(#rect54); text-align: center;">(GO0032879) regulation of localization</text></g><g><rect x="479.70616442459914" y="60.021907523391214" width="76.7673826194573" height="52.31970674427354" rx="2" style="fill: gold;"/><text fill="black" x="479.70616442459914" y="60.021907523391214" style="shape-inside: url(#rect55); text-align: center;">(GO0042981) regulation of apoptotic process</text></g><g><rect x="479.70616442459914" y="114.34161426766475" width="76.7673826194573" height="52.453164437060465" rx="2" style="fill: gold;"/><text fill="black" x="479.70616442459914" y="114.34161426766475" style="shape-inside: url(#rect56); text-align: center;">(GO0043067) regulation of programmed cell death</text></g><g><rect x="479.70616442459914" y="168.79477870472522" width="76.7673826194573" height="46.51950211064835" rx="2" style="fill: gold;"/><text fill="black" x="479.70616442459914" y="168.79477870472522" style="shape-inside: url(#rect57); text-align: center;">(GO0044057) regulation of system process</text></g><g><rect x="479.70616442459914" y="217.31428081537356" width="76.7673826194573" height="50.79791070309753" rx="2" style="fill: gold;"/><text fill="black" x="479.70616442459914" y="217.31428081537356" style="shape-inside: url(#rect58); text-align: center;">(GO0045595) regulation of cell differentiation</text></g><g><rect x="558.4735470440564" y="4" width="74.77762791933014" height="41.11179346040917" rx="2" style="fill: gold;"/><text fill="black" x="558.4735470440564" y="4" style="shape-inside: url(#rect59); text-align: center;">(GO0045861) negative regulation of proteolysis</text></g><g><rect x="558.4735470440564" y="47.11179346040917" width="74.77762791933014" height="62.96011159476941" rx="2" style="fill: gold;"/><text fill="black" x="558.4735470440564" y="47.11179346040917" style="shape-inside: url(#rect60); text-align: center;">(GO0048518) positive regulation of biological process</text></g><g><rect x="558.4735470440564" y="112.07190505517858" width="74.77762791933014" height="63.15680198574353" rx="2" style="fill: gold;"/><text fill="black" x="558.4735470440564" y="112.07190505517858" style="shape-inside: url(#rect61); text-align: center;">(GO0048519) negative regulation of biological process</text></g><g><rect x="558.4735470440564" y="177.2287070409221" width="74.77762791933014" height="60.030815758291794" rx="2" style="fill: gold;"/><text fill="black" x="558.4735470440564" y="177.2287070409221" style="shape-inside: url(#rect62); text-align: center;">(GO0048583) regulation of response to stimulus</text></g><g><rect x="558.4735470440564" y="239.2595227992139" width="74.77762791933014" height="28.852668719257252" rx="2" style="fill: gold;"/><text fill="black" x="558.4735470440564" y="239.2595227992139" style="shape-inside: url(#rect63); text-align: center;">(GO0048634) regulation of muscle organ development</text></g><g><rect x="635.2511749633866" y="4" width="70.07892853279805" height="75.47240937144193" rx="2" style="fill: gold;"/><text fill="black" x="635.2511749633866" y="4" style="shape-inside: url(#rect64); text-align: center;">(GO0050789) regulation of biological process</text></g><g><rect x="707.3301034961846" y="4" width="57.263484169572735" height="75.47240937144193" rx="2" style="fill: gold;"/><text fill="black" x="707.3301034961846" y="4" style="shape-inside: url(#rect65); text-align: center;">(GO0050793) regulation of developmental process</text></g><g><rect x="766.5935876657574" y="4" width="69.79738293037951" height="75.47240937144193" rx="2" style="fill: gold;"/><text fill="black" x="766.5935876657574" y="4" style="shape-inside: url(#rect66); text-align: center;">(GO0050794) regulation of cellular process</text></g><g><rect x="838.3909705961369" y="4" width="57.60902940386313" height="75.47240937144193" rx="2" style="fill: gold;"/><text fill="black" x="838.3909705961369" y="4" style="shape-inside: url(#rect67); text-align: center;">(GO0051128) regulation of cellular component organization</text></g><g><rect x="635.2511749633866" y="81.47240937144193" width="83.37485974332026" height="35.51356944579831" rx="2" style="fill: gold;"/><text fill="black" x="635.2511749633866" y="81.47240937144193" style="shape-inside: url(#rect68); text-align: center;">(GO0051147) regulation of muscle cell differentiation</text></g><g><rect x="635.2511749633866" y="118.98597881724024" width="83.37485974332026" height="34.2230656206751" rx="2" style="fill: gold;"/><text fill="black" x="635.2511749633866" y="118.98597881724024" style="shape-inside: url(#rect69); text-align: center;">(GO0051153) regulation of striated muscle cell differentiation</text></g><g><rect x="635.2511749633866" y="155.20904443791534" width="83.37485974332026" height="60.70604592222898" rx="2" style="fill: gold;"/><text fill="black" x="635.2511749633866" y="155.20904443791534" style="shape-inside: url(#rect70); text-align: center;">(GO0051171) regulation of nitrogen compound metabolic process</text></g><g><rect x="635.2511749633866" y="217.91509036014432" width="83.37485974332026" height="50.19710115832683" rx="2" style="fill: gold;"/><text fill="black" x="635.2511749633866" y="217.91509036014432" style="shape-inside: url(#rect71); text-align: center;">(GO0051239) regulation of multicellular organismal process</text></g><g><rect x="720.6260347067068" y="81.47240937144193" width="58.999990427792" height="74.99701680420853" rx="2" style="fill: gold;"/><text fill="black" x="720.6260347067068" y="81.47240937144193" style="shape-inside: url(#rect72); text-align: center;">(GO0051246) regulation of protein metabolic process</text></g><g><rect x="781.6260251344988" y="81.47240937144193" width="51.131388898529735" height="74.99701680420853" rx="2" style="fill: gold;"/><text fill="black" x="781.6260251344988" y="81.47240937144193" style="shape-inside: url(#rect73); text-align: center;">(GO0051248) negative regulation of protein metabolic process</text></g><g><rect x="834.7574140330286" y="81.47240937144193" width="61.24258596697143" height="74.99701680420853" rx="2" style="fill: gold;"/><text fill="black" x="834.7574140330286" y="81.47240937144193" style="shape-inside: url(#rect74); text-align: center;">(GO0065008) regulation of biological quality</text></g><g><rect x="720.6260347067068" y="158.46942617565045" width="71.15042607599673" height="55.876747822180135" rx="2" style="fill: gold;"/><text fill="black" x="720.6260347067068" y="158.46942617565045" style="shape-inside: url(#rect75); text-align: center;">(GO0080134) regulation of response to stress</text></g><g><rect x="720.6260347067068" y="216.3461739978306" width="71.15042607599673" height="51.76601752064056" rx="2" style="fill: gold;"/><text fill="black" x="720.6260347067068" y="216.3461739978306" style="shape-inside: url(#rect76); text-align: center;">(GO0080135) regulation of cellular response to stress</text></g><g><rect x="793.7764607827036" y="158.46942617565045" width="55.209940051783065" height="59.10263040094287" rx="2" style="fill: gold;"/><text fill="black" x="793.7764607827036" y="158.46942617565045" style="shape-inside: url(#rect77); text-align: center;">(GO0090257) regulation of muscle system process</text></g><g><rect x="850.9864008344866" y="158.46942617565045" width="45.01359916551337" height="59.10263040094287" rx="2" style="fill: gold;"/><text fill="black" x="850.9864008344866" y="158.46942617565045" style="shape-inside: url(#rect78); text-align: center;">(GO1901861) regulation of muscle tissue development</text></g><g><rect x="793.7764607827036" y="219.57205657659333" width="54.30394180472376" height="48.540134941877824" rx="2" style="fill: gold;"/><text fill="black" x="793.7764607827036" y="219.57205657659333" style="shape-inside: url(#rect79); text-align: center;">(GO1903573) negative regulation of response to endoplasmic reticulum stress</text></g><g><rect x="850.0804025874273" y="219.57205657659333" width="45.91959741257267" height="48.54013494187777" rx="2" style="fill: gold;"/><text fill="black" x="850.0804025874273" y="219.57205657659333" style="shape-inside: url(#rect80); text-align: center;">(GO1905207) regulation of cardiocyte differentiation</text></g></g><g id="ExportContainer_Group_GO0042592"><rect x="318.8749096847058" y="273.11219151847115" width="139.1427592768718" height="29.592154740615797" rx="2" style="stroke: gainsboro; fill: white;"/><g><rect x="319.8749096847058" y="274.11219151847115" width="137.1427592768718" height="27.592154740615797" rx="2" style="fill: skyblue;"/><text fill="black" x="319.8749096847058" y="274.11219151847115" style="shape-inside: url(#rect81); text-align: center;">(GO0042592, representative) homeostatic process</text></g></g><g id="ExportContainer_Group_GO0044281"><rect x="318.8749096847058" y="306.70434625908695" width="139.1427592768718" height="239.34331766550008" rx="2" style="stroke: gainsboro; fill: white;"/><g><rect x="319.8749096847058" y="307.70434625908695" width="65.57755981290825" height="76.13852355952343" rx="2" style="fill: lightgreen;"/><text fill="black" x="319.8749096847058" y="307.70434625908695" style="shape-inside: url(#rect82); text-align: center;">(GO0044281, representative) small molecule metabolic process</text></g><g><rect x="387.45246949761406" y="307.70434625908695" width="69.56519946396355" height="76.13852355952343" rx="2" style="fill: lightgreen;"/><text fill="black" x="387.45246949761406" y="307.70434625908695" style="shape-inside: url(#rect83); text-align: center;">(GO0006807) nitrogen compound metabolic process</text></g><g><rect x="319.8749096847058" y="385.8428698186104" width="66.62836930970315" height="77.9579885872073" rx="2" style="fill: lightgreen;"/><text fill="black" x="319.8749096847058" y="385.8428698186104" style="shape-inside: url(#rect84); text-align: center;">(GO0043170) macromolecule metabolic process</text></g><g><rect x="388.50327899440896" y="385.8428698186104" width="68.51438996716865" height="77.9579885872073" rx="2" style="fill: lightgreen;"/><text fill="black" x="388.50327899440896" y="385.8428698186104" style="shape-inside: url(#rect85); text-align: center;">(GO0044237) cellular metabolic process</text></g><g><rect x="319.8749096847058" y="465.8008584058177" width="67.33901427046021" height="79.24680551876935" rx="2" style="fill: lightgreen;"/><text fill="black" x="319.8749096847058" y="465.8008584058177" style="shape-inside: url(#rect86); text-align: center;">(GO0044238) primary metabolic process</text></g><g><rect x="389.213923955166" y="465.8008584058177" width="67.80374500641159" height="79.24680551876935" rx="2" style="fill: lightgreen;"/><text fill="black" x="389.213923955166" y="465.8008584058177" style="shape-inside: url(#rect87); text-align: center;">(GO0071704) organic substance metabolic process</text></g></g><g id="ExportContainer_Group_GO0048871"><rect x="318.8749096847058" y="550.047663924587" width="139.1427592768718" height="46.95233607541297" rx="2" style="stroke: gainsboro; fill: white;"/><g><rect x="319.8749096847058" y="551.047663924587" width="70.46526819922235" height="44.95233607541297" rx="2" style="fill: violet;"/><text fill="white" x="319.8749096847058" y="551.047663924587" style="shape-inside: url(#rect88); text-align: center;">(GO0048871, representative) multicellular organismal-level homeostasis</text></g><g><rect x="392.34017788392816" y="551.047663924587" width="64.67749107764945" height="44.95233607541297" rx="2" style="fill: violet;"/><text fill="white" x="392.34017788392816" y="551.047663924587" style="shape-inside: url(#rect89); text-align: center;">(GO0001894) tissue homeostasis</text></g></g><g id="ExportContainer_Group_GO0050808"><rect x="462.0176689615776" y="273.11219151847115" width="115.20522359079376" height="230.299652405894" rx="2" style="stroke: gainsboro; fill: white;"/><g><rect x="463.0176689615776" y="274.11219151847115" width="46.970592996758455" height="75.91711521143344" rx="2" style="fill: khaki;"/><text fill="black" x="463.0176689615776" y="274.11219151847115" style="shape-inside: url(#rect90); text-align: center;">(GO0050808, representative) synapse organization</text></g><g><rect x="511.98826195833607" y="274.11219151847115" width="64.23463059403531" height="75.91711521143344" rx="2" style="fill: khaki;"/><text fill="black" x="511.98826195833607" y="274.11219151847115" style="shape-inside: url(#rect91); text-align: center;">(GO0016043) cellular component organization</text></g><g><rect x="463.0176689615776" y="352.0293067299046" width="46.820967836153784" height="64.51178342517647" rx="2" style="fill: khaki;"/><text fill="black" x="463.0176689615776" y="352.0293067299046" style="shape-inside: url(#rect92); text-align: center;">(GO0016358) dendrite development</text></g><g><rect x="511.8386367977314" y="352.0293067299046" width="64.38425575463998" height="64.51178342517647" rx="2" style="fill: khaki;"/><text fill="black" x="511.8386367977314" y="352.0293067299046" style="shape-inside: url(#rect93); text-align: center;">(GO0030030) cell projection organization</text></g><g><rect x="463.0176689615776" y="418.54109015508106" width="62.51070050166328" height="39.35899966358244" rx="2" style="fill: khaki;"/><text fill="black" x="463.0176689615776" y="418.54109015508106" style="shape-inside: url(#rect94); text-align: center;">(GO0060996) dendritic spine development</text></g><g><rect x="463.0176689615776" y="459.9000898186635" width="62.51070050166328" height="42.51175410570164" rx="2" style="fill: khaki;"/><text fill="black" x="463.0176689615776" y="459.9000898186635" style="shape-inside: url(#rect95); text-align: center;">(GO0106027) neuron projection organization</text></g><g><rect x="527.5283694632409" y="418.54109015508106" width="48.694523089130485" height="83.87075376928414" rx="2" style="fill: khaki;"/><text fill="black" x="527.5283694632409" y="418.54109015508106" style="shape-inside: url(#rect96); text-align: center;">(GO0120036) plasma membrane bounded cell projection organization</text></g></g><g id="ExportContainer_Group_GO0050896"><rect x="462.0176689615776" y="507.41184392436514" width="115.20522359079376" height="42.62050580002574" rx="2" style="stroke: gainsboro; fill: white;"/><g><rect x="463.0176689615776" y="508.41184392436514" width="113.20522359079376" height="40.62050580002574" rx="2" style="fill: lightskyblue;"/><text fill="black" x="463.0176689615776" y="508.41184392436514" style="shape-inside: url(#rect97); text-align: center;">(GO0050896, representative) response to stimulus</text></g></g><g id="ExportContainer_Group_GO0051179"><rect x="462.0176689615776" y="554.0323497243909" width="115.20522359079376" height="42.96765027560923" rx="2" style="stroke: gainsboro; fill: white;"/><g><rect x="463.0176689615776" y="555.0323497243909" width="113.20522359079376" height="40.96765027560923" rx="2" style="fill: crimson;"/><text fill="white" x="463.0176689615776" y="555.0323497243909" style="shape-inside: url(#rect98); text-align: center;">(GO0051179, representative) localization</text></g></g><g id="ExportContainer_Group_GO0051235"><rect x="581.2228925523714" y="273.11219151847115" width="315.7771074476286" height="268.37326659593043" rx="2" style="stroke: gainsboro; fill: white;"/><g><rect x="582.2228925523714" y="274.11219151847115" width="76.88272472926178" height="48.097371499185385" rx="2" style="fill: lightseagreen;"/><text fill="white" x="582.2228925523714" y="274.11219151847115" style="shape-inside: url(#rect99); text-align: center;">(GO0051235, representative) maintenance of location</text></g><g><rect x="582.2228925523714" y="324.20956301765654" width="76.88272472926178" height="66.78023586887502" rx="2" style="fill: lightseagreen;"/><text fill="white" x="582.2228925523714" y="324.20956301765654" style="shape-inside: url(#rect100); text-align: center;">(GO0006810) transport</text></g><g><rect x="582.2228925523714" y="392.98979888653156" width="76.88272472926178" height="40.60686249713996" rx="2" style="fill: lightseagreen;"/><text fill="white" x="582.2228925523714" y="392.98979888653156" style="shape-inside: url(#rect101); text-align: center;">(GO0009914) hormone transport</text></g><g><rect x="582.2228925523714" y="435.5966613836715" width="76.88272472926178" height="51.008980864842044" rx="2" style="fill: lightseagreen;"/><text fill="white" x="582.2228925523714" y="435.5966613836715" style="shape-inside: url(#rect102); text-align: center;">(GO0010817) regulation of hormone levels</text></g><g><rect x="582.2228925523714" y="488.60564224851356" width="76.88272472926178" height="51.87981586588802" rx="2" style="fill: lightseagreen;"/><text fill="white" x="582.2228925523714" y="488.60564224851356" style="shape-inside: url(#rect103); text-align: center;">(GO0015833) peptide transport</text></g><g><rect x="661.1056172816332" y="274.11219151847115" width="49.63138628393722" height="90.07090069111416" rx="2" style="fill: lightseagreen;"/><text fill="white" x="661.1056172816332" y="274.11219151847115" style="shape-inside: url(#rect104); text-align: center;">(GO0016192) vesicle-mediated transport</text></g><g><rect x="712.7370035655704" y="274.11219151847115" width="37.431624686868304" height="90.07090069111416" rx="2" style="fill: lightseagreen;"/><text fill="white" x="712.7370035655704" y="274.11219151847115" style="shape-inside: url(#rect105); text-align: center;">(GO0032507) maintenance of protein location in cell</text></g><g><rect x="752.1686282524387" y="274.11219151847115" width="42.38964843573035" height="90.07090069111416" rx="2" style="fill: lightseagreen;"/><text fill="white" x="752.1686282524387" y="274.11219151847115" style="shape-inside: url(#rect106); text-align: center;">(GO0032535) regulation of cellular component size</text></g><g><rect x="796.558276688169" y="274.11219151847115" width="45.0768694092219" height="90.07090069111416" rx="2" style="fill: lightseagreen;"/><text fill="white" x="796.558276688169" y="274.11219151847115" style="shape-inside: url(#rect107); text-align: center;">(GO0032940) secretion by cell</text></g><g><rect x="843.6351460973909" y="274.11219151847115" width="52.36485390260907" height="90.07090069111416" rx="2" style="fill: lightseagreen;"/><text fill="white" x="843.6351460973909" y="274.11219151847115" style="shape-inside: url(#rect108); text-align: center;">(GO0033036) macromolecule localization</text></g><g><rect x="661.1056172816332" y="366.1830922095853" width="73.06154343353876" height="58.88881241458506" rx="2" style="fill: lightseagreen;"/><text fill="white" x="661.1056172816332" y="366.1830922095853" style="shape-inside: url(#rect109); text-align: center;">(GO0033365) protein localization to organelle</text></g><g><rect x="661.1056172816332" y="427.0719046241704" width="73.06154343353876" height="55.35489858126891" rx="2" style="fill: lightseagreen;"/><text fill="white" x="661.1056172816332" y="427.0719046241704" style="shape-inside: url(#rect110); text-align: center;">(GO0042886) amide transport</text></g><g><rect x="661.1056172816332" y="484.4268032054393" width="73.06154343353876" height="56.05865490896241" rx="2" style="fill: lightseagreen;"/><text fill="white" x="661.1056172816332" y="484.4268032054393" style="shape-inside: url(#rect111); text-align: center;">(GO0046903) secretion</text></g><g><rect x="736.1671607151719" y="366.1830922095853" width="52.690819913986616" height="85.72942273495653" rx="2" style="fill: lightseagreen;"/><text fill="white" x="736.1671607151719" y="366.1830922095853" style="shape-inside: url(#rect112); text-align: center;">(GO0046907) intracellular transport</text></g><g><rect x="790.8579806291585" y="366.1830922095853" width="47.77339275092686" height="85.72942273495653" rx="2" style="fill: lightseagreen;"/><text fill="white" x="790.8579806291585" y="366.1830922095853" style="shape-inside: url(#rect113); text-align: center;">(GO0048193) Golgi vesicle transport</text></g><g><rect x="840.6313733800854" y="366.1830922095853" width="55.36862661991461" height="85.72942273495653" rx="2" style="fill: lightseagreen;"/><text fill="white" x="840.6313733800854" y="366.1830922095853" style="shape-inside: url(#rect114); text-align: center;">(GO0051641) cellular localization</text></g><g><rect x="736.1671607151719" y="453.91251494454184" width="112.98811247916876" height="42.73790116422964" rx="2" style="fill: lightseagreen;"/><text fill="white" x="736.1671607151719" y="453.91251494454184" style="shape-inside: url(#rect115); text-align: center;">(GO0071702) organic substance transport</text></g><g><rect x="736.1671607151719" y="498.6504161087715" width="112.98811247916876" height="41.8350420056301" rx="2" style="fill: lightseagreen;"/><text fill="white" x="736.1671607151719" y="498.6504161087715" style="shape-inside: url(#rect116); text-align: center;">(GO0071705) nitrogen compound transport</text></g><g><rect x="851.1552731943407" y="453.91251494454184" width="44.84472680565932" height="86.57294316985974" rx="2" style="fill: lightseagreen;"/><text fill="white" x="851.1552731943407" y="453.91251494454184" style="shape-inside: url(#rect117); text-align: center;">(GO0090066) regulation of anatomical structure size</text></g></g><g id="ExportContainer_Group_GO0065007"><rect x="581.2228925523714" y="545.4854581144016" width="99.10519879006392" height="51.51454188559842" rx="2" style="stroke: gainsboro; fill: white;"/><g><rect x="582.2228925523714" y="546.4854581144016" width="97.10519879006392" height="49.51454188559842" rx="2" style="fill: tomato;"/><text fill="white" x="582.2228925523714" y="546.4854581144016" style="shape-inside: url(#rect118); text-align: center;">(GO0065007, representative) biological regulation</text></g></g><g id="ExportContainer_Group_GO0071840"><rect x="684.3280913424353" y="545.4854581144016" width="94.88254637457896" height="51.51454188559842" rx="2" style="stroke: gainsboro; fill: white;"/><g><rect x="685.3280913424353" y="546.4854581144016" width="92.88254637457896" height="49.51454188559842" rx="2" style="fill: royalblue;"/><text fill="white" x="685.3280913424353" y="546.4854581144016" style="shape-inside: url(#rect119); text-align: center;">(GO0071840, representative) cellular component organization or biogenesis</text></g></g><g id="ExportContainer_Group_GO1904591"><rect x="783.2106377170143" y="545.4854581144016" width="113.78936228298664" height="51.51454188559842" rx="2" style="stroke: gainsboro; fill: white;"/><g><rect x="784.2106377170143" y="546.4854581144016" width="24.210388114897" height="49.51454188559842" rx="2" style="fill: mediumseagreen;"/><text fill="white" x="784.2106377170143" y="546.4854581144016" style="shape-inside: url(#rect120); text-align: center;">(GO1904591, representative) positive regulation of protein import</text></g><g><rect x="810.4210258319113" y="546.4854581144016" width="59.28405096992424" height="49.51454188559842" rx="2" style="fill: mediumseagreen;"/><text fill="white" x="810.4210258319113" y="546.4854581144016" style="shape-inside: url(#rect121); text-align: center;">(GO0090087) regulation of peptide transport</text></g><g><rect x="871.7050768018355" y="546.4854581144016" width="24.294923198165407" height="49.51454188559842" rx="2" style="fill: mediumseagreen;"/><text fill="white" x="871.7050768018355" y="546.4854581144016" style="shape-inside: url(#rect122); text-align: center;">(GO1904589) regulation of protein import</text></g></g></g></svg>